<svg width="32" height="32" viewBox="0 0 32 32" fill="none" xmlns="http://www.w3.org/2000/svg">
  <rect width="32" height="32" rx="6" fill="#112748"/>
  <g transform="translate(5.5, 4) scale(2.1)">
    <path d="M0 11.4609V0.210938H5.71875C8.42188 0.210938 9.77344 1.33594 9.77344 3.58594C9.77344 5.83073 8.29167 6.95312 5.32812 6.95312H2.82031V11.4609H0ZM6.85938 11.4609L3.53125 6.19531H6.63281L10.0234 11.4609H6.85938ZM2.82031 4.78906H5.50781C5.98177 4.78906 6.34635 4.6875 6.60156 4.48438C6.85677 4.27604 6.98438 3.97656 6.98438 3.58594C6.98438 3.19531 6.85156 2.89583 6.58594 2.6875C6.32552 2.47917 5.94792 2.375 5.45312 2.375H2.82031V4.78906Z" fill="#6FA0E2"/>
  </g>
</svg>
