<svg width="142" height="12" viewBox="0 0 142 12" fill="none" xmlns="http://www.w3.org/2000/svg">
<path d="M0 11.4609V0.210938H5.71875C8.42188 0.210938 9.77344 1.33594 9.77344 3.58594C9.77344 5.83073 8.29167 6.95312 5.32812 6.95312H2.82031V11.4609H0ZM6.85938 11.4609L3.53125 6.19531H6.63281L10.0234 11.4609H6.85938ZM2.82031 4.78906H5.50781C5.98177 4.78906 6.34635 4.6875 6.60156 4.48438C6.85677 4.27604 6.98438 3.97656 6.98438 3.58594C6.98438 3.19531 6.85156 2.89583 6.58594 2.6875C6.32552 2.47917 5.94792 2.375 5.45312 2.375H2.82031V4.78906Z" fill="#6FA0E2"/>
<path d="M11.3828 11.4609L15.5234 0.210938H19.2578L23.3828 11.4609H20.3438L17.375 2.07812L14.4219 11.4609H11.3828ZM14.3594 8.63281V6.38281H20.375V8.63281H14.3594ZM30.1562 11.6719C29.0156 11.6719 28.026 11.4323 27.1875 10.9531C26.3542 10.474 25.7083 9.79688 25.25 8.92188C24.7969 8.04167 24.5703 7.01042 24.5703 5.82812C24.5703 4.64583 24.7943 3.61979 25.2422 2.75C25.6953 1.875 26.3385 1.19792 27.1719 0.71875C28.0104 0.239583 29.0052 0 30.1562 0C31.4948 0 32.6198 0.333333 33.5312 1C34.4479 1.66146 35.0495 2.60156 35.3359 3.82031L32.4922 4.47656C32.3672 3.79427 32.099 3.27865 31.6875 2.92969C31.276 2.57552 30.763 2.39844 30.1484 2.39844C29.5859 2.39844 29.1068 2.53646 28.7109 2.8125C28.3203 3.08854 28.0234 3.48438 27.8203 4C27.6172 4.51042 27.5156 5.1224 27.5156 5.83594C27.5156 6.54948 27.6172 7.16667 27.8203 7.6875C28.0286 8.20312 28.3281 8.59896 28.7188 8.875C29.1094 9.14583 29.5807 9.28125 30.1328 9.28125C30.7214 9.28125 31.2109 9.11979 31.6016 8.79688C31.9922 8.46875 32.2682 8.0026 32.4297 7.39844L35.3281 7.95312C35.026 9.13021 34.4193 10.0443 33.5078 10.6953C32.6016 11.3464 31.4844 11.6719 30.1562 11.6719ZM42.75 11.6719C41.6094 11.6719 40.6198 11.4323 39.7812 10.9531C38.9479 10.474 38.3021 9.79688 37.8438 8.92188C37.3906 8.04167 37.1641 7.01042 37.1641 5.82812C37.1641 4.64583 37.388 3.61979 37.8359 2.75C38.2891 1.875 38.9323 1.19792 39.7656 0.71875C40.6042 0.239583 41.599 0 42.75 0C44.0885 0 45.2135 0.333333 46.125 1C47.0417 1.66146 47.6432 2.60156 47.9297 3.82031L45.0859 4.47656C44.9609 3.79427 44.6927 3.27865 44.2812 2.92969C43.8698 2.57552 43.3568 2.39844 42.7422 2.39844C42.1797 2.39844 41.7005 2.53646 41.3047 2.8125C40.9141 3.08854 40.6172 3.48438 40.4141 4C40.2109 4.51042 40.1094 5.1224 40.1094 5.83594C40.1094 6.54948 40.2109 7.16667 40.4141 7.6875C40.6224 8.20312 40.9219 8.59896 41.3125 8.875C41.7031 9.14583 42.1745 9.28125 42.7266 9.28125C43.3151 9.28125 43.8047 9.11979 44.1953 8.79688C44.5859 8.46875 44.862 8.0026 45.0234 7.39844L47.9219 7.95312C47.6198 9.13021 47.013 10.0443 46.1016 10.6953C45.1953 11.3464 44.0781 11.6719 42.75 11.6719ZM55.4297 11.6719C54.263 11.6719 53.2552 11.4375 52.4062 10.9688C51.5573 10.4948 50.9036 9.82031 50.4453 8.94531C49.987 8.07031 49.7578 7.03385 49.7578 5.83594C49.7578 4.63281 49.987 3.59635 50.4453 2.72656C50.9036 1.85677 51.5573 1.1849 52.4062 0.710938C53.2552 0.236979 54.263 0 55.4297 0C56.5964 0 57.6042 0.236979 58.4531 0.710938C59.3021 1.1849 59.9557 1.85677 60.4141 2.72656C60.8724 3.59635 61.1016 4.63281 61.1016 5.83594C61.1016 7.03385 60.8724 8.07031 60.4141 8.94531C59.9557 9.82031 59.3021 10.4948 58.4531 10.9688C57.6042 11.4375 56.5964 11.6719 55.4297 11.6719ZM55.4219 9.27344C56.0052 9.27344 56.5 9.13802 56.9062 8.86719C57.3125 8.59635 57.6224 8.20573 57.8359 7.69531C58.0495 7.17969 58.1562 6.5599 58.1562 5.83594C58.1562 5.10677 58.0495 4.48698 57.8359 3.97656C57.6224 3.46615 57.3125 3.07552 56.9062 2.80469C56.5 2.53385 56.0052 2.39844 55.4219 2.39844C54.849 2.39844 54.3594 2.53385 53.9531 2.80469C53.5469 3.07552 53.2344 3.46615 53.0156 3.97656C52.8021 4.48698 52.6953 5.10677 52.6953 5.83594C52.6953 6.5599 52.8021 7.17969 53.0156 7.69531C53.2344 8.20573 53.5469 8.59635 53.9531 8.86719C54.3594 9.13802 54.849 9.27344 55.4219 9.27344ZM63.6094 11.4609V0.210938H68.2656C69.625 0.210938 70.7344 0.429688 71.5938 0.867188C72.4531 1.30469 73.0859 1.94271 73.4922 2.78125C73.9036 3.61458 74.1094 4.6276 74.1094 5.82031C74.1094 7.04427 73.8958 8.07552 73.4688 8.91406C73.0469 9.7526 72.401 10.388 71.5312 10.8203C70.6667 11.2474 69.5703 11.4609 68.2422 11.4609H63.6094ZM66.4297 9.0625H67.9375C70.0885 9.0625 71.1641 7.98698 71.1641 5.83594C71.1641 5.14323 71.0469 4.55729 70.8125 4.07812C70.5781 3.59896 70.224 3.23438 69.75 2.98438C69.2812 2.73438 68.6849 2.60938 67.9609 2.60938H66.4297V9.0625ZM78.8906 11.4609V7.41406L75.0156 0.210938H77.9844L80.4531 5.53906H80.1172L82.5938 0.210938H85.5625L81.7109 7.39062V11.4609H78.8906ZM87.5781 11.4609V0.210938H91.6484L96.2969 10.2656L95.3359 10.3125V0.210938H98.0234V11.4609H94.0156L89.25 1.35156L90.2656 1.29688V11.4609H87.5781ZM100.102 11.4609L104.242 0.210938H107.977L112.102 11.4609H109.062L106.094 2.07812L103.141 11.4609H100.102ZM103.078 8.63281V6.38281H109.094V8.63281H103.078ZM113.891 11.4609L114.516 0.210938H119.086L120.992 9.58594H120.727L122.641 0.210938H127.211L127.836 11.4609H125.086L124.602 2.19531H124.625L122.617 11.4609H119.109L117.102 2.19531H117.125L116.641 11.4609H113.891ZM129.773 11.4609L133.836 5.60938L129.773 0.210938H133.328L135.688 3.64062L137.789 0.210938H141.281L137.461 5.71094L141.781 11.4609H138.203L135.625 7.69531L133.289 11.4609H129.773Z" fill="white"/>
</svg>
